<svg width="0" height="0" class="hidden">
  <symbol xmlns="http://www.w3.org/2000/svg" viewBox="0 0 64 64" id="three">
    <defs></defs>
    <title>Repeat Three</title>
    <g id="Layer_2">
      <path d="M34.49,53.86A2.77,2.77,0,0,0,32,56.59v.51a2.76,2.76,0,0,0,3.08,2.73A28,28,0,1,0,4,30.71a.67.67,0,0,0,1,.57l9.19-6.13A.63.63,0,0,0,13.9,24H11.81a.21.21,0,0,1-.19-.29A22,22,0,1,1,34.49,53.86Z"></path>
      <path d="M24,56V40a4,4,0,0,0-4-4H10a2,2,0,0,0-2,2H8a2,2,0,0,0,2,2h7a3,3,0,0,1,0,6H13.92a2,2,0,0,0,0,4H17a3,3,0,0,1,0,6H10a2,2,0,0,0-2,2H8a2,2,0,0,0,2,2H20A4,4,0,0,0,24,56Z"></path>
    </g>
  </symbol>
  <symbol xmlns="http://www.w3.org/2000/svg" viewBox="0 0 64 64" id="zero">
    <defs></defs>
    <title>Reepat None</title>
    <g id="Layer_2">
      <path d="M33.79,4.06A28,28,0,0,0,4,30.71a.67.67,0,0,0,1,.57l9.19-6.13A.63.63,0,0,0,13.91,24H11.82a.21.21,0,0,1-.19-.29A22,22,0,1,1,34.51,53.86,2.77,2.77,0,0,0,32,56.59v.51a2.76,2.76,0,0,0,3.08,2.73A28,28,0,0,0,33.79,4.06Z"></path>
      <path d="M17.13,60A6.85,6.85,0,0,0,24,53.14V42.86A6.85,6.85,0,0,0,17.13,36H14.88A6.85,6.85,0,0,0,8,42.86V53.14A6.85,6.85,0,0,0,14.88,60ZM12,52V44a4,4,0,0,1,4-4h0a4,4,0,0,1,4,4v8a4,4,0,0,1-4,4h0A4,4,0,0,1,12,52Z"></path>
    </g>
  </symbol>
  <symbol xmlns="http://www.w3.org/2000/svg" viewBox="0 0 64 64" id="ten">
    <defs></defs>
    <title>Repeat Ten</title>
    <g id="Layer_2">
      <path d="M18.87,36A6.85,6.85,0,0,0,12,42.86V53.14A6.85,6.85,0,0,0,18.87,60h2.25A6.85,6.85,0,0,0,28,53.14V42.86A6.85,6.85,0,0,0,21.12,36ZM24,44v8a4,4,0,0,1-4,4h0a4,4,0,0,1-4-4V44a4,4,0,0,1,4-4h0A4,4,0,0,1,24,44Z"></path>
      <path d="M34.48,53.86A2.77,2.77,0,0,0,32,56.59v.51A2.76,2.76,0,0,0,35,59.83,28,28,0,1,0,4,30.71a.67.67,0,0,0,1,.57l9.19-6.13A.63.63,0,0,0,13.88,24H11.79a.21.21,0,0,1-.19-.29A22,22,0,1,1,34.48,53.86Z"></path>
      <rect x="4" y="36" width="4" height="24" rx="1.2" ry="1.2"></rect>
    </g>
  </symbol>
</svg>