<svg xmlns="http://www.w3.org/2000/svg" viewBox="0 0 64 64"><defs><style>.cls-1{fill:#0072ff;}</style></defs><title>Repeat Three</title><g id="Layer_2" data-name="Layer 2"><path class="cls-1" d="M34.49,53.86A2.77,2.77,0,0,0,32,56.59v.51a2.76,2.76,0,0,0,3.08,2.73A28,28,0,1,0,4,30.71a.67.67,0,0,0,1,.57l9.19-6.13A.63.63,0,0,0,13.9,24H11.81a.21.21,0,0,1-.19-.29A22,22,0,1,1,34.49,53.86Z"/><path class="cls-1" d="M24,56V40a4,4,0,0,0-4-4H10a2,2,0,0,0-2,2H8a2,2,0,0,0,2,2h7a3,3,0,0,1,0,6H13.92a2,2,0,0,0,0,4H17a3,3,0,0,1,0,6H10a2,2,0,0,0-2,2H8a2,2,0,0,0,2,2H20A4,4,0,0,0,24,56Z"/></g></svg>